<svg xmlns="http://www.w3.org/2000/svg" width="50" height="50" viewBox="0 0 50 50"><g><g><g><path fill="#0f9e20" d="M23.557 25.063a.976.976 0 1 0 1.38 1.38.976.976 0 1 0-1.38-1.38z"/></g><g><path fill="#0f9e20" d="M47.093 7.374zm0 0a6.514 6.514 0 0 0-1.648-2.819 6.519 6.519 0 0 0-2.819-1.648c1.414-.717 3.794-1.52 4.89-.424.866.867.651 2.774-.422 4.891zM21.695 33.83c-1.074 1.075-2.647 2.235-4.674 3.45-2.636 1.578-5.754 3.072-8.567 4.267 1.227-2.889 2.75-6.058 4.362-8.723 1.18-1.951 2.308-3.471 3.355-4.518C40.025 4.508 38.612 5.736 40.06 4.578c1.606-.103 3.02.374 4.003 1.358.985.985 1.462 2.399 1.36 4.004-1.161 1.451.052.052-23.729 23.89zm20.043 12.314a1.342 1.342 0 0 1-2.41 1.004l-11.84-16.349 10.107-10.106zM42.892 22.3a.975.975 0 1 1 1.38 1.382l-3.623 3.623-.387-2.375zM18.879 47.695a1.204 1.204 0 0 1-1.841-.167l-4.07-5.88a66.956 66.956 0 0 0 4.15-2.164l2.064 7.02c.124.423.008.879-.303 1.19zM2.305 31.122a1.203 1.203 0 0 1 1.19-.304l7.02 2.065a66.48 66.48 0 0 0-2.164 4.15l-5.88-4.07a1.204 1.204 0 0 1-.166-1.841zm.547-20.448a1.34 1.34 0 0 1 1.003-2.411l25.452 4.144-10.106 10.105zm23.466-4.946a.976.976 0 1 1 1.382 1.38l-2.63 2.63-2.375-.387zm12.767-2.871c-1.676 1.297-2.133 1.966-8.076 7.848l-3.563-.58 1.635-1.635a2.927 2.927 0 0 0 0-4.144 2.929 2.929 0 0 0-4.143 0l-4.619 4.619-16.15-2.63a3.295 3.295 0 0 0-2.461 5.92l16.094 11.656-3.013 3.014c-1.033 1.033-2.12 2.453-3.237 4.226l-7.505-2.207a3.157 3.157 0 0 0-2.687 5.624l6.153 4.26C6.442 41.19 5.791 42.9 5.761 42.98a.977.977 0 0 0 1.26 1.26c.078-.03 1.787-.682 4.151-1.753l4.26 6.153a3.157 3.157 0 0 0 5.624-2.687l-2.207-7.505c1.774-1.118 3.194-2.205 4.226-3.237l3.014-3.013 11.655 16.095a3.295 3.295 0 0 0 5.921-2.462l-2.63-16.15 4.618-4.618a2.929 2.929 0 0 0 0-4.144 2.927 2.927 0 0 0-4.142 0l-1.636 1.635-.58-3.563c5.888-5.95 6.547-6.395 7.845-8.071l.005-.006c3.012-3.904 3.717-7.847 1.752-9.812C46.933-.86 42.99-.157 39.085 2.857z"/></g><g><path fill="#0f9e20" d="M29.081 19.538L26.319 22.3a.977.977 0 1 0 1.381 1.38l2.762-2.76a.976.976 0 1 0-1.381-1.382z"/></g><g><path fill="#0f9e20" d="M34.605 14.014l-2.763 2.762a.977.977 0 0 0 1.382 1.382l2.762-2.763a.977.977 0 0 0-1.38-1.381z"/></g></g></g></svg>