<svg xmlns="http://www.w3.org/2000/svg" width="50" height="40" viewBox="0 0 50 40"><g><g><g><path fill="#0f9e20" d="M42.076 27.476c-1.765 0-3.348-.51-4.46-1.436-.98-.814-1.573-1.944-1.741-3.262h12.452c-.418 3.245-3.347 4.698-6.251 4.698zM25 11.941a5.156 5.156 0 1 1 0-10.312 5.156 5.156 0 0 1 0 10.312zm1.217 19.355h-2.434V13.445c.804.158 1.63.158 2.434 0zm3.853 3.245H19.93v-1.622h10.14zm2.028 3.752H17.902v-2.13h14.196zM7.874 27.476c-1.764 0-3.348-.51-4.46-1.435-.98-.815-1.572-1.945-1.741-3.263h12.452c-.418 3.245-3.347 4.698-6.251 4.698zm0-18.246l5.385 11.926H2.489zM4.57 5.793a.759.759 0 0 1 .74-.76h13.14a7.5 7.5 0 0 0-.222 1.52H8.199c-.004 0-.009-.02-.013-.022-.013-.006-.027-.02-.04-.025-.013-.005-.025-.013-.037-.017-.012-.004-.026-.01-.039-.013l-.04-.01a.679.679 0 0 0-.155-.017c-.014 0-.028 0-.042.002l-.035.002a.553.553 0 0 0-.12.021.402.402 0 0 0-.037.01l-.039.013c-.013.005-.026.028-.038.033-.005.002-.01.024-.015.024H5.31a.759.759 0 0 1-.739-.76zm40.016-.76a.76.76 0 0 1 0 1.52h-2.135c-.005 0-.009-.02-.013-.022-.014-.006-.027-.02-.041-.025-.014-.005-.025-.013-.038-.017-.012-.004-.024-.01-.037-.013l-.042-.01a.918.918 0 0 0-.078-.012l-.036-.003h-.08a1.266 1.266 0 0 0-.116.014.926.926 0 0 0-.04.009l-.039.01-.037.013c-.012.004-.027.028-.04.034-.005.002-.009.023-.013.023h-10.03a7.508 7.508 0 0 0-.222-1.521zm2.924 16.123H36.74L42.128 9.23zm1.784.027L43.414 8.176h1.173a2.383 2.383 0 0 0 0-4.766H30.879a6.772 6.772 0 0 0-11.757 0H5.31a2.383 2.383 0 0 0 0 4.766h1.277L.705 21.183a.802.802 0 0 0-.705.795c0 2.187.822 4.023 2.375 5.316 1.403 1.168 3.356 1.808 5.498 1.808 4.666 0 7.925-2.933 7.925-7.132a.794.794 0 0 0-.759-.79L9.161 8.176h9.197c.432 2.13 1.876 3.845 3.803 4.744v18.376h-2.994c-.448 0-.86.368-.86.816v2.43h-1.243a.761.761 0 0 0-.785.777v3.741c0 .448.337.856.785.856h15.872c.448 0 .785-.408.785-.856v-3.741a.76.76 0 0 0-.785-.778h-1.243v-2.429c0-.448-.411-.816-.86-.816H27.84V12.92c1.927-.899 3.372-2.614 3.803-4.744h9.198L34.96 21.18a.802.802 0 0 0-.758.8c0 2.186.822 4.022 2.375 5.315 1.403 1.168 3.356 1.808 5.498 1.808 4.666 0 7.925-2.924 7.925-7.123a.803.803 0 0 0-.705-.795z"/></g><g><path fill="#0f9e20" d="M25 8.944a2.159 2.159 0 1 1 0-4.318 2.159 2.159 0 0 1 0 4.318zm0-5.94a3.781 3.781 0 1 0 0 7.562 3.781 3.781 0 0 0 0-7.562z"/></g></g></g></svg>