<svg xmlns="http://www.w3.org/2000/svg" width="34" height="34" viewBox="0 0 34 34"><g><g><g><g><g><path fill="#0f9e20" d="M30.68 11.422a.669.669 0 0 0 .664-.664.669.669 0 0 0-.195-.47.669.669 0 0 0-.47-.194.669.669 0 0 0-.469.194.669.669 0 0 0-.194.47.669.669 0 0 0 .664.664z"/></g><g><path fill="#0f9e20" d="M13.049 29.462h-.01a.664.664 0 0 0 0 1.328h.01a.664.664 0 0 0 0-1.328z"/></g><g><path fill="#0f9e20" d="M27.332 31.733v-3.737c0-.366.298-.664.664-.664h3.737zm-26.004.275V30.79h9.065a.664.664 0 0 0 0-1.328H1.328v-18.04h26.695a.664.664 0 0 0 0-1.328H1.328V4.648c0-.366.298-.664.664-.664H4.25v1.528A2.26 2.26 0 0 0 6.508 7.77a2.26 2.26 0 0 0 2.258-2.258V3.984h5.968v1.528a2.26 2.26 0 0 0 2.258 2.258 2.26 2.26 0 0 0 2.257-2.258V3.984h5.969v1.528a2.26 2.26 0 0 0 2.257 2.258 2.26 2.26 0 0 0 2.258-2.258V3.984h2.275c.366 0 .664.298.664.664v21.356h-4.676a1.994 1.994 0 0 0-1.992 1.992v4.676H1.992a.665.665 0 0 1-.664-.664zm4.25-29.75a.93.93 0 0 1 1.86 0v3.254a.93.93 0 0 1-1.86 0zm10.484 0a.93.93 0 0 1 1.86 0v3.254a.93.93 0 0 1-1.86 0zm10.484 0a.93.93 0 0 1 1.859 0v3.254a.93.93 0 0 1-1.86 0zM34 26.668V4.648a1.994 1.994 0 0 0-1.992-1.992h-2.275v-.398A2.26 2.26 0 0 0 27.475 0a2.26 2.26 0 0 0-2.257 2.258v.398h-5.969v-.398A2.26 2.26 0 0 0 16.992 0a2.26 2.26 0 0 0-2.258 2.258v.398H8.766v-.398A2.26 2.26 0 0 0 6.508 0 2.26 2.26 0 0 0 4.25 2.258v.398H1.992A1.994 1.994 0 0 0 0 4.648v27.36C0 33.106.894 34 1.992 34h24.676c.183 0 .35-.074.47-.194l6.668-6.668a.662.662 0 0 0 .194-.47z"/></g><g><path fill="#0f9e20" d="M18.632 19.47h-3.063v-2.443h3.693a.664.664 0 0 0 0-1.329h-3.726c-.714 0-1.294.581-1.294 1.295v2.511c0 .714.58 1.294 1.294 1.294H18.598v2.444h-3.692a.664.664 0 0 0 0 1.328h3.726c.713 0 1.294-.58 1.294-1.294v-2.512c0-.713-.58-1.294-1.294-1.294z"/></g></g></g></g></g></svg>