<svg xmlns="http://www.w3.org/2000/svg" width="20" height="20" viewBox="0 0 20 20"><g><g><g><g><g><path fill="#5e6878" d="M19.551 15.783l-3.088-3.089c-.616-.613-1.634-.594-2.271.043l-1.556 1.556-.307-.171c-.983-.545-2.328-1.29-3.743-2.707-1.42-1.42-2.166-2.766-2.713-3.75-.057-.104-.112-.204-.167-.3L6.75 6.322l.514-.514c.637-.637.655-1.656.041-2.27L4.217.448c-.614-.613-1.633-.595-2.271.043l-.87.875.023.024a5.034 5.034 0 0 0-.717 1.265c-.167.441-.272.862-.32 1.284-.407 3.38 1.138 6.47 5.331 10.664 5.796 5.796 10.467 5.358 10.669 5.336.439-.052.86-.157 1.287-.323.459-.18.888-.423 1.26-.714l.02.017.881-.864c.636-.637.655-1.656.041-2.272z"/></g></g></g></g></g></svg>