<svg xmlns="http://www.w3.org/2000/svg" width="20" height="21" viewBox="0 0 20 21"><g><g><g><g><path fill="#5e6878" d="M7.225 11.284a.464.464 0 0 0-.464-.464H5.14a.464.464 0 0 0-.464.464v1.62c0 .256.208.464.464.464h1.62a.464.464 0 0 0 .464-.464z"/></g><g><path fill="#5e6878" d="M11.274 11.284a.464.464 0 0 0-.464-.464H9.19a.464.464 0 0 0-.464.464v1.62c0 .256.208.464.464.464h1.62a.464.464 0 0 0 .464-.464z"/></g><g><path fill="#5e6878" d="M15.323 11.284a.464.464 0 0 0-.464-.464h-1.62a.464.464 0 0 0-.464.464v1.62c0 .256.207.464.464.464h1.62a.464.464 0 0 0 .464-.464z"/></g><g><path fill="#5e6878" d="M7.225 15.333a.464.464 0 0 0-.464-.464H5.14a.464.464 0 0 0-.464.464v1.62c0 .256.208.464.464.464h1.62a.464.464 0 0 0 .464-.464z"/></g><g><path fill="#5e6878" d="M11.274 15.333a.464.464 0 0 0-.464-.464H9.19a.464.464 0 0 0-.464.464v1.62c0 .256.208.464.464.464h1.62a.464.464 0 0 0 .464-.464z"/></g><g><path fill="#5e6878" d="M15.323 15.333a.464.464 0 0 0-.464-.464h-1.62a.464.464 0 0 0-.464.464v1.62c0 .256.207.464.464.464h1.62a.464.464 0 0 0 .464-.464z"/></g><g><path fill="#5e6878" d="M17.626 17.706a.793.793 0 0 1-.792.793H3.13a.793.793 0 0 1-.792-.793v-7.49c0-.437.354-.792.792-.792h13.703c.437 0 .792.355.792.793zm.594-15.429v2.475a2.02 2.02 0 0 1-2.026 2.02h-1.277a2.031 2.031 0 0 1-2.038-2.02V2.269H7.121v2.483c0 1.118-.92 2.02-2.038 2.02H3.805a2.02 2.02 0 0 1-2.025-2.02V2.277C.803 2.307 0 3.115 0 4.11v14.5c0 1.013.82 1.844 1.833 1.844h16.334A1.845 1.845 0 0 0 20 18.61V4.11c0-.994-.803-1.802-1.78-1.832z"/></g><g><path fill="#5e6878" d="M3.8 5.445h1.265c.383 0 .694-.31.694-.694V.694A.694.694 0 0 0 5.065 0H3.8a.694.694 0 0 0-.695.694v4.057c0 .383.311.694.695.694z"/></g><g><path fill="#5e6878" d="M14.9 5.445h1.264c.384 0 .695-.31.695-.694V.694A.694.694 0 0 0 16.164 0H14.9a.694.694 0 0 0-.694.694v4.057c0 .383.31.694.694.694z"/></g></g></g></g></svg>