<svg xmlns="http://www.w3.org/2000/svg" width="50" height="50" viewBox="0 0 50 50"><g><g><g><path fill="#0f9e20" d="M25 1.596a6.284 6.284 0 0 1 6.277 6.277A6.284 6.284 0 0 1 25 14.15a6.284 6.284 0 0 1-6.277-6.277A6.284 6.284 0 0 1 25 1.596zm0 14.15c4.341 0 7.873-3.532 7.873-7.873S29.341 0 25 0c-4.34 0-7.872 3.532-7.872 7.873 0 4.34 3.531 7.873 7.872 7.873z"/></g><g><path fill="#0f9e20" d="M25 18.937c6.363 0 11.588 4.967 12 11.228H18.56a.798.798 0 1 0 0 1.595h19.264c.44 0 .798-.357.798-.798 0-7.51-6.11-13.62-13.622-13.62-7.51 0-13.621 6.11-13.621 13.62 0 .441.357.798.798.798h3.191a.798.798 0 1 0 0-1.595h-2.367c.412-6.26 5.636-11.228 12-11.228z"/></g><g><path fill="#0f9e20" d="M10.848 43.86a.798.798 0 0 0-.22.677l.487 3.268-2.958-1.473a.798.798 0 0 0-.71 0l-2.959 1.473.487-3.268a.797.797 0 0 0-.22-.677L2.44 41.502l3.259-.547a.798.798 0 0 0 .575-.418l1.528-2.93 1.527 2.93a.798.798 0 0 0 .575.418l3.26.547zm4.09-3.678l-4.378-.735-2.05-3.935a.798.798 0 0 0-1.416 0l-2.051 3.935-4.377.735a.798.798 0 0 0-.437 1.346l3.109 3.167-.654 4.39a.798.798 0 0 0 1.145.831l3.973-1.978 3.972 1.978a.799.799 0 0 0 1.145-.832l-.654-4.39 3.11-3.166a.798.798 0 0 0-.438-1.346z"/></g><g><path fill="#0f9e20" d="M28.047 43.86a.798.798 0 0 0-.22.677l.487 3.268-2.958-1.473a.798.798 0 0 0-.711 0l-2.958 1.473.486-3.268a.797.797 0 0 0-.22-.677l-2.314-2.358 3.258-.547a.798.798 0 0 0 .576-.418L25 37.607l1.527 2.93a.798.798 0 0 0 .576.418l3.259.547zm4.089-3.678l-4.377-.735-2.051-3.935a.798.798 0 0 0-1.415 0l-2.051 3.935-4.377.735a.798.798 0 0 0-.438 1.346l3.11 3.167-.654 4.39a.798.798 0 0 0 1.145.831L25 47.938l3.973 1.978a.799.799 0 0 0 1.145-.832l-.654-4.39 3.11-3.166a.798.798 0 0 0-.438-1.346z"/></g><g><path fill="#0f9e20" d="M45.245 43.86a.798.798 0 0 0-.22.677l.488 3.268-2.959-1.473a.798.798 0 0 0-.71 0l-2.959 1.473.487-3.268a.797.797 0 0 0-.22-.677l-2.315-2.358 3.26-.547a.798.798 0 0 0 .575-.418l1.527-2.93 1.527 2.93a.798.798 0 0 0 .576.418l3.259.547zm4.716-3.138a.798.798 0 0 0-.627-.54l-4.377-.735-2.05-3.935a.798.798 0 0 0-1.416 0l-2.051 3.935-4.377.735a.798.798 0 0 0-.437 1.346l3.109 3.167-.654 4.39a.798.798 0 0 0 1.145.831l3.973-1.978 3.972 1.978a.799.799 0 0 0 1.145-.832l-.654-4.39 3.11-3.166a.797.797 0 0 0 .19-.806z"/></g><g><path fill="#0f9e20" d="M25 11.49c1.046 0 2.041-.454 2.73-1.247a.798.798 0 0 0-1.204-1.047A2.022 2.022 0 0 1 25 9.895c-.583 0-1.14-.255-1.525-.699a.798.798 0 0 0-1.205 1.047A3.618 3.618 0 0 0 25 11.49z"/></g></g></g></svg>