<svg xmlns="http://www.w3.org/2000/svg" width="34" height="34" viewBox="0 0 34 34"><g><g><g><path fill="#0f9e20" d="M22.934 14.698a.809.809 0 0 0 0 1.617.81.81 0 0 0 0-1.617z"/></g><g><path fill="#0f9e20" d="M27.568 14.698a.809.809 0 0 0 0 1.617.809.809 0 0 0 0-1.617z"/></g><g><path fill="#0f9e20" d="M6.432 14.698a.81.81 0 0 0 0 1.617.809.809 0 0 0 0-1.617z"/></g><g><path fill="#0f9e20" d="M11.066 14.698a.81.81 0 0 0 0 1.617.809.809 0 0 0 0-1.617z"/></g><g><path fill="#0f9e20" d="M22.841 30.377a.81.81 0 0 1-.263-.044 6.247 6.247 0 0 0 .478-1.567.821.821 0 0 1-.215 1.611zm-5.997 2.654a5.307 5.307 0 0 1-5.3-5.3c0-2.923 2.377-5.301 5.3-5.301s5.3 2.378 5.3 5.3c0 2.923-2.377 5.301-5.3 5.301zm-5.997-2.654a.822.822 0 0 1-.215-1.611c.091.55.254 1.075.478 1.567a.81.81 0 0 1-.263.044zm9.295-15.873v-.518c3.78-.136 5.537-1.799 6.246-2.774.686.815 2.09 2.212 3.972 2.687v.605a5.115 5.115 0 0 1-5.11 5.11 5.115 5.115 0 0 1-5.108-5.11zm5.109 7.203c-.648 0-1.216-.39-1.463-.96a7.836 7.836 0 0 1 2.925.003 1.598 1.598 0 0 1-1.462.957zm-16.502 0a1.598 1.598 0 0 1-1.463-.96 7.86 7.86 0 0 1 2.926 0c-.248.57-.815.96-1.463.96zm-5.096-6.863v-.007a5.144 5.144 0 0 1-.013-.333v-.518c3.781-.136 5.537-1.799 6.247-2.774.686.815 2.09 2.212 3.971 2.687v.605c0 .112-.005.223-.012.333v.007a5.115 5.115 0 0 1-5.097 4.77 5.115 5.115 0 0 1-5.096-4.77zm-.9 2.115a.821.821 0 1 1-.054-1.638c.072.542.216 1.061.421 1.549a.813.813 0 0 1-.368.09zm-.491-8.468c1.205-1.83 3.497-2.664 5.116-2.664 1.581 0 2.03.454 2.582 1.203a.501.501 0 0 0 .679.118c.009-.005.89-.577 2.081-.414 1.153.158 2.099.758 2.663 1.69.839 1.387.842 3.46.017 6.02a1.806 1.806 0 0 0-.545-.12v-.828a.498.498 0 0 0-.414-.491c-2.467-.425-4.175-2.929-4.192-2.953a.502.502 0 0 0-.874.085c-.003.008-.313.722-1.222 1.425-1.213.939-2.946 1.435-5.011 1.435a.498.498 0 0 0-.499.499v.829a1.804 1.804 0 0 0-.584.134c-.903-2.385-.836-4.39.203-5.968zm12.484 8.468a.809.809 0 0 1-.368-.088c.205-.488.35-1.008.422-1.55a.821.821 0 0 1-.054 1.638zm18.977 9.21a.498.498 0 1 0-.966.249c.124.478.201.97.232 1.466H23.55a1.803 1.803 0 0 0-.41-.12v-.034a6.298 6.298 0 0 0-2.889-5.293 7.69 7.69 0 0 1 2.563-1.438 2.597 2.597 0 0 0 2.436 1.705c1.105 0 2.068-.7 2.434-1.701a7.757 7.757 0 0 1 4.383 3.665.503.503 0 0 0 .716.176.503.503 0 0 0 .16-.652 8.77 8.77 0 0 0-1.425-1.935c.46-.344.858-.868 1.186-1.567 1.304-2.773 1.301-8.073.384-10.465a8.372 8.372 0 0 0-3.081-3.915 8.387 8.387 0 0 0-10.29.605.498.498 0 0 0 .657.749 7.39 7.39 0 0 1 11.783 2.918c.831 2.168.83 7.162-.355 9.684-.3.64-.651 1.075-1.044 1.3a8.749 8.749 0 0 0-2.882-1.55 6.113 6.113 0 0 0 3.48-5.512v-1.008a.498.498 0 0 0-.414-.491c-2.468-.425-4.175-2.929-4.192-2.953a.503.503 0 0 0-.876.089c-.012.028-1.222 2.856-6.232 2.856a.498.498 0 0 0-.498.499v1.008a6.113 6.113 0 0 0 3.476 5.51 8.667 8.667 0 0 0-2.88 1.55c-.392-.223-.742-.658-1.042-1.298-1.186-2.522-1.186-7.516-.355-9.684a7.429 7.429 0 0 1 .792-1.517.498.498 0 0 0-.825-.56 8.431 8.431 0 0 0-.898 1.72c-.917 2.392-.92 7.692.384 10.465.166.354.35.661.55.924a6.276 6.276 0 0 0-1.357-.18c-.05-.39-.083-.942.011-1.372a.498.498 0 0 0-.973-.214c-.093.42-.095.888-.068 1.282a2.125 2.125 0 0 1-.942-1.305.498.498 0 0 0-.983.163c.009.054.171.978 1.013 1.706a6.295 6.295 0 0 0-.457.156 8.704 8.704 0 0 0-3.213-1.835 6.147 6.147 0 0 0 2.538-2.26 1.82 1.82 0 0 0 2.648-1.615c0-.39-.123-.75-.331-1.045 1.3-3.777.727-5.99.003-7.187-.723-1.194-1.923-1.962-3.38-2.162a4.31 4.31 0 0 0-2.36.352C9.803 5.273 9.014 4.83 7.378 4.83c-1.878 0-4.54.974-5.949 3.112-1.562 2.373-.996 5.163-.181 7.178a1.82 1.82 0 0 0 2.335 2.634 6.148 6.148 0 0 0 2.534 2.259 8.695 8.695 0 0 0-3.68 2.292.503.503 0 0 0-.025.663c.187.226.54.239.744.027a7.708 7.708 0 0 1 3.157-1.997 2.597 2.597 0 0 0 2.436 1.706c1.106 0 2.07-.702 2.435-1.704a7.7 7.7 0 0 1 2.43 1.326 6.3 6.3 0 0 0-3.068 5.404v.035c-.142.023-.28.064-.409.119H1.012a7.744 7.744 0 0 1 1.016-3.388.498.498 0 1 0-.863-.498A8.747 8.747 0 0 0 0 28.363v.02c0 .274.223.498.498.498h8.663a1.82 1.82 0 0 0 2.438 2.33 6.297 6.297 0 0 0 5.245 2.817 6.297 6.297 0 0 0 5.246-2.817 1.82 1.82 0 0 0 2.438-2.33h8.974a.498.498 0 0 0 .498-.499v-.02c0-.742-.093-1.48-.277-2.193z"/></g><g><path fill="#0f9e20" d="M14.527 27.518a.809.809 0 0 0 0 1.616.81.81 0 0 0 0-1.616z"/></g><g><path fill="#0f9e20" d="M19.161 27.518a.809.809 0 1 0 .002 1.618.809.809 0 0 0-.002-1.618z"/></g><g><path fill="#0f9e20" d="M15.224 1.935c.103-.756.602-.91.89-.934.032-.003.064-.004.096-.004.396 0 .757.203.846.488a.498.498 0 0 0 .951 0c.097-.308.51-.52.943-.484.288.024.786.178.89.934.175 1.282-1.444 2.463-2.308 2.941-.864-.478-2.484-1.66-2.308-2.94zm.475 2.872a8.355 8.355 0 0 0 1.615 1.08c.136.066.3.066.436 0a8.354 8.354 0 0 0 1.614-1.08c1.097-.945 1.603-1.985 1.464-3.007C20.66.576 19.79.071 19.033.008a2.035 2.035 0 0 0-1.501.465A2.035 2.035 0 0 0 16.03.008c-.757.063-1.627.568-1.794 1.792-.14 1.022.366 2.062 1.463 3.007z"/></g></g></g></svg>