<svg xmlns="http://www.w3.org/2000/svg" width="50" height="45" viewBox="0 0 50 45"><g><g><g><path fill="#0f9e20" d="M32.348 34.184V22.659c0-.407-.218-.783-.572-.984l-16.675-9.478 3.712-2.338 16.086 9.144-1.408.887a1.131 1.131 0 1 0 1.205 1.914l1.274-.801v10.9zm5.875-15.363c0-.01-.002-.019-.003-.028a1.115 1.115 0 0 0-.027-.136v-.002a1.128 1.128 0 0 0-.044-.124l-.015-.035a1.124 1.124 0 0 0-.043-.088l-.021-.037-.012-.02a1.151 1.151 0 0 0-.053-.077l-.01-.014a1.099 1.099 0 0 0-.091-.103l-.019-.017a1.142 1.142 0 0 0-.087-.076l-.023-.018a1.146 1.146 0 0 0-.125-.081L20.985 8.492l9.595-6.043 16.087 9.144-6.775 4.266a1.131 1.131 0 1 0 1.205 1.915l8.374-5.273a1.13 1.13 0 0 0-.044-1.94L31.11.147a1.131 1.131 0 0 0-1.161.026l-11.76 7.405-.007.004-5.877 3.7a.54.54 0 0 0-.008.006L.53 18.699a1.13 1.13 0 0 0 .043 1.94l18.319 10.413a1.129 1.129 0 0 0 1.161-.026l8.374-5.273a1.131 1.131 0 1 0-1.205-1.915l-7.801 4.913-16.087-9.145 9.596-6.042 17.157 9.753v12.916a1.131 1.131 0 0 0 1.734.957l5.884-3.705c.329-.207.528-.568.528-.957V18.953l-.001-.02c0-.037-.003-.074-.008-.112z"/></g><g><path fill="#0f9e20" d="M48.266 15.111l-8.374 5.273a1.131 1.131 0 1 0 1.205 1.914l8.374-5.272a1.131 1.131 0 1 0-1.205-1.915z"/></g><g><path fill="#0f9e20" d="M27.22 28.363l-7.8 4.912L1.69 23.198a1.131 1.131 0 1 0-1.118 1.966L18.89 35.577a1.129 1.129 0 0 0 1.162-.026l8.374-5.273a1.131 1.131 0 1 0-1.205-1.915z"/></g><g><path fill="#0f9e20" d="M48.266 19.636l-8.374 5.273a1.131 1.131 0 1 0 1.205 1.914l8.374-5.273a1.131 1.131 0 1 0-1.205-1.914z"/></g><g><path fill="#0f9e20" d="M27.22 32.888l-7.8 4.912L1.69 27.723a1.131 1.131 0 1 0-1.118 1.966L18.89 40.102a1.129 1.129 0 0 0 1.162-.026l8.374-5.273a1.131 1.131 0 1 0-1.205-1.915z"/></g><g><path fill="#0f9e20" d="M48.266 24.16l-8.374 5.274a1.131 1.131 0 1 0 1.205 1.914l8.374-5.273a1.131 1.131 0 1 0-1.205-1.914z"/></g><g><path fill="#0f9e20" d="M27.22 37.413l-7.8 4.912L1.69 32.247a1.131 1.131 0 1 0-1.118 1.967L18.89 44.627a1.129 1.129 0 0 0 1.162-.027l8.374-5.273a1.131 1.131 0 1 0-1.205-1.914z"/></g></g></g></svg>