<svg xmlns="http://www.w3.org/2000/svg" width="34" height="34" viewBox="0 0 34 34"><g><g><g><g><g><path fill="#0f9e20" d="M22.667 24.367A2.269 2.269 0 0 1 20.4 22.1a2.269 2.269 0 0 1 2.267-2.267 2.269 2.269 0 0 1 2.266 2.267 2.269 2.269 0 0 1-2.266 2.267zm0-5.667a3.403 3.403 0 0 0-3.4 3.4c0 1.875 1.525 3.4 3.4 3.4s3.4-1.525 3.4-3.4-1.525-3.4-3.4-3.4z"/></g></g></g><g><g><g><path fill="#0f9e20" d="M23.8 24.367v2.341l-.82-.546a.564.564 0 0 0-.628 0l-.819.546v-2.341H20.4v3.4a.566.566 0 0 0 .881.471l1.386-.924 1.385.924a.569.569 0 0 0 .582.028c.184-.098.3-.29.3-.5v-3.4z"/></g></g></g><g><g><g><path fill="#0f9e20" d="M13.033 6.8V5.667H20.4V6.8z"/></g></g></g><g><g><g><path fill="#0f9e20" d="M7.933 10.2V9.067h18.134V10.2z"/></g></g></g><g><g><g><path fill="#0f9e20" d="M7.933 13.6v-1.133H20.4V13.6z"/></g></g></g><g><g><g><path fill="#0f9e20" d="M22.667 13.6v-1.133h3.4V13.6z"/></g></g></g><g><g><g><path fill="#0f9e20" d="M7.933 17v-1.133h18.134V17z"/></g></g></g><g><g><g><path fill="#0f9e20" d="M7.933 20.4v-1.133h6.8V20.4z"/></g></g></g><g><g><g><path fill="#0f9e20" d="M7.933 23.233V22.1h2.834v1.133z"/></g></g></g><g><g><g><path fill="#0f9e20" d="M13.033 23.233V22.1h1.7v1.133z"/></g></g></g><g><g><g><path fill="#0f9e20" d="M32.867 3.4h-3.4v-.567c0-.937.762-1.7 1.7-1.7.937 0 1.7.763 1.7 1.7zm-1.7-3.4a2.837 2.837 0 0 0-2.834 2.833v1.134c0 .312.254.566.567.566h4.533A.566.566 0 0 0 34 3.967V2.833A2.836 2.836 0 0 0 31.167 0z"/></g></g></g><g><g><g><path fill="#0f9e20" d="M31.167 0h-23.8a2.837 2.837 0 0 0-2.834 2.833v27.2h1.134v-27.2c0-.937.762-1.7 1.7-1.7H28.9a2.818 2.818 0 0 0-.568 1.7v28.334c0 .937-.762 1.7-1.7 1.7H5.1V34h21.533a2.837 2.837 0 0 0 2.834-2.833V2.833c0-.937.763-1.7 1.7-1.7a.566.566 0 1 0 0-1.133z"/></g></g></g><g><g><g><path fill="#0f9e20" d="M2.833 32.867c-.937 0-1.7-.763-1.7-1.7V30.6H23.8v.567c0 .637.211 1.226.568 1.7zm23.8 0c-.937 0-1.7-.763-1.7-1.7v-1.134a.566.566 0 0 0-.566-.566H.567a.567.567 0 0 0-.567.566v1.134A2.837 2.837 0 0 0 2.833 34h23.8a.566.566 0 1 0 0-1.133z"/></g></g></g></g></g></svg>