<svg xmlns="http://www.w3.org/2000/svg" width="20" height="20" viewBox="0 0 20 20"><g><g><path fill="#5e6878" d="M16.458 6.028a1.76 1.76 0 0 1-2.486 0 1.76 1.76 0 0 1 0-2.485 1.76 1.76 0 0 1 2.486 0 1.76 1.76 0 0 1 0 2.485zm1.657-4.143a6.453 6.453 0 0 0-9.115 0 6.443 6.443 0 0 0-1.57 6.541l-7.258 7.26a.585.585 0 0 0-.172.413v3.315c0 .324.262.586.586.586h3.315a.585.585 0 0 0 .414-.172L5.144 19a.586.586 0 0 0 .167-.482l-.103-.89 1.234-.116a.585.585 0 0 0 .528-.528l.116-1.234.89.104a.587.587 0 0 0 .653-.582V14.18h1.072a.585.585 0 0 0 .414-.172l1.503-1.483c2.295.744 4.78.193 6.497-1.525a6.453 6.453 0 0 0 0-9.115z"/></g></g></svg>