<svg xmlns="http://www.w3.org/2000/svg" width="103" height="50" viewBox="0 0 103 50"><defs><clipPath id="dbcza"><path d="M0 25C0 11.215 9.448 0 26.869 0s36.216 11.215 36.216 25S44.29 50 26.869 50C9.449 50 0 38.785 0 25z"/></clipPath></defs><g><g><g><g><g/><g clip-path="url(#dbcza)"><path fill="#109a17" d="M-2.337 52.337V-2.337h67.758v54.674z"/></g></g><g><path fill="#fff" d="M47.514 23.327a5.28 5.28 0 0 1 1.033-1.785 4.673 4.673 0 0 1 1.65-1.196 5.837 5.837 0 0 1 4.42 0c.63.273 1.191.681 1.645 1.196a5.36 5.36 0 0 1 1.033 1.785 6.7 6.7 0 0 1 .355 2.22 6.472 6.472 0 0 1-.355 2.177 5.276 5.276 0 0 1-1.033 1.757 4.78 4.78 0 0 1-1.645 1.173 5.958 5.958 0 0 1-4.42 0 4.8 4.8 0 0 1-1.65-1.173 5.196 5.196 0 0 1-1.033-1.757 6.472 6.472 0 0 1-.36-2.177 6.701 6.701 0 0 1 .36-2.22zm2.145 3.528c.097.408.266.796.5 1.145.228.34.536.62.897.813.85.412 1.842.412 2.692 0 .361-.194.669-.473.897-.813.232-.35.4-.737.495-1.145a5.7 5.7 0 0 0 0-2.668 3.533 3.533 0 0 0-.5-1.173 2.528 2.528 0 0 0-.901-.823 3.089 3.089 0 0 0-2.692 0c-.362.197-.67.48-.897.823a3.532 3.532 0 0 0-.5 1.173 5.948 5.948 0 0 0-.16 1.36c.001.44.055.88.16 1.308zm-7.08-6.692c.443-.005.882.074 1.295.234.367.143.703.357.986.63.272.265.485.583.626.936.148.363.222.752.22 1.144a3.224 3.224 0 0 1-.397 1.627 2.477 2.477 0 0 1-1.295 1.046v.033c.264.067.51.191.72.365.19.165.348.363.467.584.123.232.21.48.262.738.055.267.093.537.112.808 0 .169 0 .37.028.599.028.228.028.467.056.705.021.229.06.455.117.678.046.196.13.382.248.546h-2.337a4.206 4.206 0 0 1-.243-1.21 18.273 18.273 0 0 0-.13-1.346 2.173 2.173 0 0 0-.51-1.229 1.762 1.762 0 0 0-1.271-.388h-2.337v4.178H36.86V20.163zm-.836 4.832c.434.032.864-.096 1.21-.36.298-.312.445-.738.402-1.168.041-.416-.106-.83-.402-1.126a1.808 1.808 0 0 0-1.21-.35h-2.575v3.004zm-10.08-4.832a4.425 4.425 0 0 1 1.706.295c.433.169.824.43 1.145.766.287.316.505.689.64 1.094.268.823.268 1.71 0 2.532a3.042 3.042 0 0 1-.64 1.103 3.182 3.182 0 0 1-1.145.767c-.543.209-1.123.31-1.705.294h-2.468v3.827H26.86V20.163zm-.644 5.024c.26 0 .522-.018.78-.056.233-.035.456-.115.659-.234.194-.112.356-.273.467-.467.23-.524.23-1.121 0-1.645a1.266 1.266 0 0 0-.467-.467 1.841 1.841 0 0 0-.659-.234 5.29 5.29 0 0 0-.78-.056h-1.823v3.159zm-5.874-5.024v1.977h-5.64v2.285h5.177v1.827h-5.177v2.617h5.757v1.972h-8.103V20.163zm-13.024 0a3.43 3.43 0 0 1 1.29.234c.37.141.706.356.99.63.271.266.485.584.627.936.146.363.219.752.215 1.144a3.224 3.224 0 0 1-.393 1.627c-.298.49-.757.862-1.299 1.051v.033c.263.065.508.19.715.364.19.164.35.362.468.584.12.233.208.482.261.739.052.27.089.542.112.808 0 .168 0 .37.028.598.028.23.028.467.052.706.025.228.065.455.121.677.048.197.134.383.253.547h-2.337a4.056 4.056 0 0 1-.238-1.21 15.973 15.973 0 0 0-.136-1.346 2.112 2.112 0 0 0-.509-1.229 1.752 1.752 0 0 0-1.271-.388H8.733v4.173H6.397V20.163zm-.84 4.832a1.79 1.79 0 0 0 1.214-.36c.296-.313.443-.739.402-1.168.041-.416-.106-.83-.402-1.126a1.813 1.813 0 0 0-1.215-.35H8.71v3.004z"/></g><g><path fill="#fff" d="M99.225 20.163a3.304 3.304 0 0 1 2.444.832c.585.632.886 1.477.832 2.337.05.859-.25 1.702-.832 2.336a3.271 3.271 0 0 1-2.444.823h-3.271v4.35h-1.402V20.163zm-.467 5.14a2.537 2.537 0 0 0 1.775-.495 2.187 2.187 0 0 0 0-2.925 2.636 2.636 0 0 0-1.775-.5h-2.804v3.897zm-11.094-5.14v9.482h5.654v1.196h-7.075V20.163zm-3.187 0v1.197h-5.949v3.406h5.547v1.197h-5.547v3.691h5.996v1.187h-7.42V20.163zm-16.748 0v4.603h5.608v-4.603h1.402v10.678h-1.402v-4.888h-5.608v4.888h-1.402V20.163z"/></g></g></g></g></svg>