<svg xmlns="http://www.w3.org/2000/svg" width="144" height="70" viewBox="0 0 144 70"><defs><clipPath id="3g79a"><path d="M0 35C0 15.7 13.228 0 37.617 0c24.389 0 50.701 15.7 50.701 35S62.006 70 37.617 70C13.227 70 0 54.3 0 35z"/></clipPath></defs><g><g><g><g><g/><g clip-path="url(#3g79a)"><path fill="#109a17" d="M-3.271 73.271V-3.27h94.86V73.27z"/></g></g><g><path fill="#fff" d="M66.52 32.658c.313-.92.804-1.77 1.446-2.5a6.542 6.542 0 0 1 2.309-1.674 8.171 8.171 0 0 1 6.189 0 6.542 6.542 0 0 1 2.303 1.675c.639.731 1.13 1.58 1.446 2.499.339 1 .507 2.051.497 3.107a9.061 9.061 0 0 1-.498 3.049 7.386 7.386 0 0 1-1.445 2.46 6.693 6.693 0 0 1-2.303 1.642 8.341 8.341 0 0 1-6.189 0 6.719 6.719 0 0 1-2.31-1.642 7.275 7.275 0 0 1-1.445-2.46 9.06 9.06 0 0 1-.504-3.049 9.381 9.381 0 0 1 .504-3.107zm3.003 4.94a4.92 4.92 0 0 0 .7 1.602c.319.476.75.867 1.256 1.138a4.324 4.324 0 0 0 3.768 0 3.506 3.506 0 0 0 1.256-1.138 4.92 4.92 0 0 0 .694-1.603c.15-.599.225-1.214.222-1.832a7.982 7.982 0 0 0-.222-1.903 4.946 4.946 0 0 0-.7-1.642 3.54 3.54 0 0 0-1.263-1.152 4.324 4.324 0 0 0-3.768 0 3.54 3.54 0 0 0-1.256 1.152 4.946 4.946 0 0 0-.7 1.642 8.327 8.327 0 0 0-.223 1.903c0 .618.075 1.233.223 1.832zm-9.912-9.37a4.834 4.834 0 0 1 1.813.328c.514.2.983.5 1.38.883.38.37.68.816.877 1.309.206.509.31 1.053.307 1.602a4.514 4.514 0 0 1-.556 2.277 3.467 3.467 0 0 1-1.812 1.466v.045c.37.094.713.268 1.007.51.266.232.487.509.655.818.171.325.294.674.366 1.034.077.373.13.751.157 1.132 0 .235 0 .517.04.837.038.32.038.654.078.988.03.32.084.637.163.949.065.275.183.535.347.765h-3.271a5.888 5.888 0 0 1-.34-1.694 25.59 25.59 0 0 0-.183-1.884 3.042 3.042 0 0 0-.714-1.721 2.466 2.466 0 0 0-1.779-.543h-3.271v5.849h-3.271v-14.95zm-1.17 6.765a2.499 2.499 0 0 0 1.694-.503 2.074 2.074 0 0 0 .562-1.636 1.963 1.963 0 0 0-.562-1.576 2.532 2.532 0 0 0-1.695-.491h-3.604v4.206zM44.328 28.23a6.195 6.195 0 0 1 2.388.412 4.455 4.455 0 0 1 1.603 1.073c.401.443.707.964.896 1.53a5.724 5.724 0 0 1 0 3.547 4.259 4.259 0 0 1-.896 1.544c-.45.47-.997.836-1.603 1.072a6.195 6.195 0 0 1-2.388.413h-3.454v5.358h-3.271v-14.95zm-.903 7.033c.366 0 .731-.026 1.093-.079.325-.049.638-.16.922-.327.272-.156.498-.382.654-.654a2.859 2.859 0 0 0 0-2.303 1.773 1.773 0 0 0-.654-.654 2.578 2.578 0 0 0-.922-.327 7.407 7.407 0 0 0-1.093-.079h-2.551v4.423zm-8.223-7.033v2.767h-7.897v3.2h7.25v2.557h-7.25v3.664h8.06v2.76H24.022V28.23zm-18.233 0a4.802 4.802 0 0 1 1.806.327c.517.198.988.498 1.387.883.378.372.677.817.876 1.309.205.509.307 1.054.301 1.602.02.794-.17 1.58-.55 2.277a3.467 3.467 0 0 1-1.818 1.472v.046a2.5 2.5 0 0 1 1 .51c.268.23.49.507.655.818.169.326.292.674.366 1.034.072.379.125.758.157 1.131 0 .236 0 .517.04.838.039.32.039.654.072.988.034.32.091.636.17.948.066.276.186.536.353.766h-3.271a5.679 5.679 0 0 1-.334-1.695 22.36 22.36 0 0 0-.19-1.884 2.957 2.957 0 0 0-.713-1.72 2.453 2.453 0 0 0-1.779-.543h-3.271v5.842H8.956v-14.95zm-1.178 6.764a2.506 2.506 0 0 0 1.701-.503c.415-.439.62-1.035.563-1.636a1.963 1.963 0 0 0-.563-1.576 2.538 2.538 0 0 0-1.7-.491h-3.599v4.206z"/></g><g><path d="M138.915 28.229a4.625 4.625 0 0 1 3.421 1.164 4.403 4.403 0 0 1 1.165 3.271 4.462 4.462 0 0 1-1.165 3.272 4.58 4.58 0 0 1-3.421 1.15h-4.58v6.092h-1.962v-14.95zm-.654 7.196a3.552 3.552 0 0 0 2.486-.693 3.062 3.062 0 0 0 0-4.096 3.69 3.69 0 0 0-2.486-.7h-3.926v5.457zM122.73 28.23v13.274h7.916v1.675h-9.905v-14.95zm-4.462 0v1.675h-8.328v4.769h7.765v1.675h-7.765v5.168h8.393v1.662h-10.389v-14.95zm-23.447 0v6.444h7.85v-6.444h1.963v14.949h-1.962v-6.843H94.82v6.843h-1.963v-14.95z"/></g></g></g></g></svg>