<svg xmlns="http://www.w3.org/2000/svg" width="30" height="30" viewBox="0 0 30 30"><g><g><path fill="#ed0000" d="M16.5 17c.167.167.333.333.667.5-1.334.167-3.334.667-5.5 1.5h-.334c.334-.667.667-1.167 1-1.833.667-1.5 1.334-2.834 1.667-4 .667 1.5 1.667 2.833 2.5 3.833zm8.333 2.667c.334-.334.5-.834.667-1 0-.334 0-.667-.167-1-.5-.834-1.833-1.167-3.833-1.167-.667 0-1.333.167-2.167.167-.666-.334-1-.667-1.5-1-1-1-2-2.5-2.666-4.334v-.166c.666-2.167 1.166-4.834 0-6-.334-.167-.667-.334-1-.334h-.334c-.666 0-1.166.667-1.333 1.334-.667 2.333-.333 3.5.333 5.5-.5 1.5-1 3.166-1.833 4.833-.667 1.167-1.167 2.167-1.667 3-.666.333-1.166.667-1.5.833-2 1.167-3 2.667-3.166 3.5 0 .334 0 .5.166.834v.166l.834.5c.166.167.333.167.666.167 1.334 0 3-1.667 5-5.167.167-.166.167-.166.334-.166 1.666-.667 3.833-1 6.666-1.334C20 19.667 22 20 23.333 20c.667 0 1.167-.167 1.5-.333zM30 3.333v23.334C30 28.5 28.5 30 26.667 30H3.333A3.343 3.343 0 0 1 0 26.667V3.333C0 1.5 1.5 0 3.333 0h23.334C28.5 0 30 1.5 30 3.333zM24.333 18.5v.167h-.5c-.833 0-2-.334-3.166-.834v-.166H21c2.333 0 3 .5 3.167.666 0 .167.166.167.166.167zm-15.5 2.333c-1 2-2 3-3 3.167.167-.5 1-1.667 2.167-2.667.167-.166.5-.333.833-.5.167 0 .167 0 0 0zm0 0c.167 0 0 0 0 0zm5-11.5c-.333-1.5-.333-2.666 0-3.666C14 5.667 14 5.5 14 5.5l.167.167v.166c.166.167.166.834 0 1.667v.333c0 .5-.167.834-.334 1.5.167 0 .167 0 0 0z"/></g></g></svg>