<svg xmlns="http://www.w3.org/2000/svg" width="50" height="42" viewBox="0 0 50 42"><g><g><g><g><g><path fill="#0f9e20" d="M45.68 4.379a.982.982 0 0 0-.69-.286.982.982 0 0 0-.692.286.982.982 0 0 0 0 1.38.986.986 0 0 0 .691.287.986.986 0 0 0 .69-.286.981.981 0 0 0 0-1.381z"/></g></g></g><g><g><g><path fill="#0f9e20" d="M23.25 27.38a.982.982 0 0 0-1.383 0 .982.982 0 0 0 0 1.38.986.986 0 0 0 .692.287.986.986 0 0 0 .69-.287.98.98 0 0 0 0-1.38z"/></g></g></g><g><g><g><path fill="#0f9e20" d="M41.262 27.586c-.326.326-.76.506-1.221.506-.461 0-.895-.18-1.221-.506l-4.065-4.065h-.001l-3.823-3.824a.977.977 0 0 0-1.381 1.381l7.888 7.889a1.729 1.729 0 0 1-1.22 2.948c-.462 0-.896-.18-1.222-.506l-7.889-7.889a.977.977 0 0 0-1.381 1.382l3.823 3.822v.001l4.066 4.065a1.73 1.73 0 0 1 0 2.443 1.729 1.729 0 0 1-2.443 0l-4.065-4.065a.975.975 0 0 0-.25-.18l-1.159-1.16a.977.977 0 0 0-1.381 1.381l5.44 5.44a1.729 1.729 0 0 1-1.222 2.948c-.46 0-.895-.18-1.22-.506l-2.07-2.07a3.68 3.68 0 0 0 .24-1.313c0-.983-.382-1.907-1.078-2.602a3.657 3.657 0 0 0-2.75-1.074 3.67 3.67 0 0 0-1.073-2.75 3.657 3.657 0 0 0-2.751-1.074 3.67 3.67 0 0 0-1.073-2.75 3.657 3.657 0 0 0-2.75-1.073 3.67 3.67 0 0 0-1.073-2.75 3.685 3.685 0 0 0-5.205 0l-1.683 1.683a3.678 3.678 0 0 0-.542.69 12.998 12.998 0 0 1-3.553-8.965c0-3.496 1.361-6.784 3.834-9.256a13.004 13.004 0 0 1 9.256-3.834c3.177 0 6.181 1.125 8.559 3.186L17.6 11.14a4.17 4.17 0 0 0-1.23 2.968 4.17 4.17 0 0 0 1.23 2.967 4.184 4.184 0 0 0 2.967 1.227c1.075 0 2.15-.409 2.968-1.227l2.66-2.66h3.442c.284 0 .565-.019.843-.053l10.782 10.781a1.73 1.73 0 0 1-.001 2.443zM23.026 36.93l-1.683 1.683c-.326.326-.76.506-1.221.506A1.729 1.729 0 0 1 18.9 36.17l1.683-1.684c.326-.326.76-.506 1.22-.506.462 0 .896.18 1.222.506.326.327.506.76.506 1.222 0 .461-.18.895-.506 1.22zm-7.949-2.14a1.715 1.715 0 0 1-.506-1.222c0-.461.18-.895.506-1.221l1.683-1.683c.326-.327.76-.506 1.221-.506a1.729 1.729 0 0 1 1.221 2.948L17.52 34.79a1.729 1.729 0 0 1-2.442 0zm-3.824-3.824a1.716 1.716 0 0 1-.505-1.222c0-.46.18-.895.505-1.22l1.684-1.684c.326-.326.76-.506 1.22-.506a1.729 1.729 0 0 1 1.221 2.948l-1.682 1.684a1.73 1.73 0 0 1-2.443 0zm-2.602-3.318c-.461 0-.895-.18-1.221-.506a1.716 1.716 0 0 1-.506-1.221c0-.461.18-.895.506-1.221l1.683-1.683c.326-.327.76-.506 1.22-.506a1.729 1.729 0 0 1 1.221 2.948l-1.682 1.683c-.326.326-.76.506-1.221.506zM48.045 7.622a.977.977 0 1 0-1.698.966c2.901 5.101 2.026 11.566-2.13 15.721l-.74.74a3.657 3.657 0 0 0-.834-1.287L32.61 13.728a6.748 6.748 0 0 0 1.794-1.286l1.925-1.925a.977.977 0 0 0-1.381-1.381l-1.925 1.924a4.756 4.756 0 0 1-3.385 1.403H25.79a.977.977 0 0 0-.69.286l-2.946 2.945a2.246 2.246 0 0 1-3.172 0 2.246 2.246 0 0 1 0-3.172l6.724-6.725C29.816 1.688 36.23.784 41.306 3.6a.977.977 0 0 0 .948-1.708 15.15 15.15 0 0 0-9.289-1.75 14.884 14.884 0 0 0-7.958 3.632A14.932 14.932 0 0 0 15.043 0 14.945 14.945 0 0 0 4.406 4.406 14.945 14.945 0 0 0 0 15.043c0 4.018 1.565 7.796 4.406 10.637l.368.368a.977.977 0 0 0 .21.159 3.669 3.669 0 0 0 3.813 3.389l-.003.148c0 .983.383 1.908 1.078 2.603a3.668 3.668 0 0 0 2.75 1.072 3.656 3.656 0 0 0 1.074 2.75 3.669 3.669 0 0 0 2.75 1.074 3.671 3.671 0 0 0 1.073 2.751 3.657 3.657 0 0 0 2.603 1.078c.983 0 1.907-.383 2.602-1.078l1.365-1.365 1.843 1.843a3.656 3.656 0 0 0 2.603 1.078c.983 0 1.907-.382 2.602-1.077a3.672 3.672 0 0 0 1.072-2.787 3.669 3.669 0 0 0 2.787-1.071 3.67 3.67 0 0 0 1.072-2.75 3.656 3.656 0 0 0 2.75-1.074 3.67 3.67 0 0 0 1.074-2.75c.05.002.099.004.148.004.983 0 1.907-.383 2.603-1.078a3.66 3.66 0 0 0 .798-1.196.976.976 0 0 0 .263-.187l1.894-1.894c4.776-4.774 5.782-12.204 2.447-18.068z"/></g></g></g></g></g></svg>