<svg xmlns="http://www.w3.org/2000/svg" width="34" height="38" viewBox="0 0 34 38"><g><g><g><path fill="#0f9e20" d="M17 37.35a5.806 5.806 0 0 1-3.352-1.062c-3.089-2.18-7.39-5.688-10.34-10.008C1.86 24.158.872 21.417.373 18.133c-.44-2.904-.412-5.713-.31-7.559a6.051 6.051 0 0 1 3.51-5.162L13.65.74a7.95 7.95 0 0 1 6.7 0l4.596 2.13a.547.547 0 1 1-.46.994L19.89 1.733a6.86 6.86 0 0 0-5.78 0L4.034 6.404a4.96 4.96 0 0 0-2.878 4.23c-.202 3.647-.072 10.447 3.056 15.029 2.857 4.186 7.052 7.602 10.067 9.731a4.726 4.726 0 0 0 5.442 0c3.015-2.129 7.21-5.545 10.067-9.731 3.128-4.582 3.258-11.382 3.056-15.028a4.96 4.96 0 0 0-2.877-4.23l-3.52-1.632a.547.547 0 1 1 .461-.992l3.519 1.63a6.053 6.053 0 0 1 3.51 5.163c.102 1.846.13 4.655-.31 7.56-.5 3.284-1.487 6.024-2.935 8.146-2.95 4.32-7.251 7.827-10.34 10.008A5.807 5.807 0 0 1 17 37.35z"/></g><g><path fill="#0f9e20" d="M17 34.09c-.53 0-1.038-.16-1.47-.466-2.222-1.569-4.213-3.222-5.918-4.913a.548.548 0 0 1 .77-.777c1.662 1.649 3.606 3.263 5.778 4.796a1.448 1.448 0 0 0 1.68 0c2.796-1.974 6.671-5.122 9.254-8.906 1.11-1.626 2.91-5.477 2.493-13.01a1.705 1.705 0 0 0-.992-1.45L18.518 4.692A3.582 3.582 0 0 0 17 4.357a3.58 3.58 0 0 0-1.518.335L5.405 9.364a1.704 1.704 0 0 0-.993 1.45c-.416 7.533 1.384 11.384 2.494 13.01a25.744 25.744 0 0 0 1.883 2.417.547.547 0 0 1-.824.72 26.838 26.838 0 0 1-1.963-2.52c-1.224-1.794-2.05-4.196-2.456-7.14-.347-2.518-.314-4.95-.226-6.547a2.796 2.796 0 0 1 1.625-2.383l10.077-4.672A4.667 4.667 0 0 1 17 3.263a4.67 4.67 0 0 1 1.978.437l10.077 4.67a2.796 2.796 0 0 1 1.625 2.384c.186 3.372.086 9.633-2.682 13.687-2.675 3.919-6.657 7.157-9.527 9.183A2.535 2.535 0 0 1 17 34.09z"/></g><g><path fill="#0f9e20" d="M23.165 17.372c0 3.4-2.766 6.165-6.165 6.165a6.172 6.172 0 0 1-6.165-6.165c0-3.4 2.765-6.165 6.165-6.165s6.165 2.766 6.165 6.165zm1.094 0c0-4.002-3.256-7.26-7.26-7.26-4.002 0-7.259 3.258-7.259 7.26 0 4.003 3.257 7.26 7.26 7.26s7.26-3.257 7.26-7.26z"/></g><g><path fill="#0f9e20" d="M14.068 17.204c.304-.304.667-.098.774.012l1.186 1.222a.549.549 0 0 0 .789-.004l2.945-3.092a.542.542 0 0 1 .774-.02c.328.33.12.668.019.774l-3.73 3.918a.55.55 0 0 1-.391.17h-.005a.55.55 0 0 1-.393-.167l-1.98-2.04c-.101-.104-.292-.468.012-.773zm2.36 4.074h.008a1.65 1.65 0 0 0 1.181-.51l3.73-3.917c.303-.318.92-1.354-.057-2.32-.643-.638-1.696-.6-2.32.056l-2.553 2.681-.79-.814a1.643 1.643 0 0 0-2.32-.035 1.643 1.643 0 0 0-.036 2.321l1.98 2.04a1.65 1.65 0 0 0 1.178.498z"/></g></g></g></svg>