<svg xmlns="http://www.w3.org/2000/svg" width="50" height="43" viewBox="0 0 50 43"><g><g><g><g><g><path fill="#0f9e20" d="M10.544 24.537a.983.983 0 0 0-.69-.286.984.984 0 0 0-.691.286.984.984 0 0 0-.287.69c0 .259.105.51.287.693a.984.984 0 0 0 .69.285c.257 0 .51-.104.691-.285a.987.987 0 0 0 .286-.692.984.984 0 0 0-.286-.69z"/></g></g></g><g><g><g><path fill="#0f9e20" d="M19.758 24.537a.984.984 0 0 0-.691-.286.984.984 0 0 0-.69.286.984.984 0 0 0-.287.69c0 .259.104.51.286.693a.983.983 0 0 0 .69.285c.258 0 .51-.104.692-.285a.988.988 0 0 0 .286-.692.984.984 0 0 0-.287-.69z"/></g></g></g><g><g><g><path fill="#0f9e20" d="M17.965 29.902a.977.977 0 0 0-1.196.692 2.394 2.394 0 0 1-2.309 1.775c-1.08 0-2.03-.73-2.309-1.775a.976.976 0 1 0-1.888.504 4.35 4.35 0 0 0 4.197 3.225 4.35 4.35 0 0 0 4.197-3.225.977.977 0 0 0-.692-1.196z"/></g></g></g><g><g><g><path fill="#0f9e20" d="M25.012 0a.977.977 0 0 0-.977.977v6.202a.977.977 0 1 0 1.954 0V.977A.977.977 0 0 0 25.012 0z"/></g></g></g><g><g><g><path fill="#0f9e20" d="M25.703 9.941a.98.98 0 0 0-1.383 0 .983.983 0 0 0-.285.691c0 .257.104.51.285.69a.987.987 0 0 0 .692.287c.257 0 .51-.105.69-.286a.985.985 0 0 0 .287-.691.985.985 0 0 0-.286-.69z"/></g></g></g><g><g><g><path fill="#0f9e20" d="M19.058 8.882L16.563 6.39a.977.977 0 0 0-1.38 1.382l2.494 2.493a.974.974 0 0 0 1.381-.001.977.977 0 0 0 0-1.382z"/></g></g></g><g><g><g><path fill="#0f9e20" d="M34.844 6.393a.977.977 0 0 0-1.382 0L30.81 9.047a.977.977 0 0 0 1.382 1.381l2.652-2.654a.977.977 0 0 0 0-1.381z"/></g></g></g><g><g><g><path fill="#0f9e20" d="M38.775 39.802c-6.66 1.784-13.532-2.183-15.317-8.844a12.424 12.424 0 0 1 1.25-9.49 12.69 12.69 0 0 1 1.072-1.572 12.413 12.413 0 0 1 6.521-4.254c1.08-.29 2.166-.428 3.234-.428 5.521 0 10.588 3.69 12.083 9.27 1.785 6.662-2.182 13.533-8.843 15.318zm-24.315.432c-6.896 0-12.506-5.61-12.506-12.506s5.61-12.506 12.506-12.506c3.57 0 6.913 1.496 9.286 4.129-.26.367-.503.747-.73 1.14a14.365 14.365 0 0 0-1.445 10.973 14.388 14.388 0 0 0 2.18 4.636 12.448 12.448 0 0 1-9.29 4.134zM49.506 23.98c-2.064-7.702-10.009-12.289-17.71-10.225a14.366 14.366 0 0 0-6.803 4.067 14.386 14.386 0 0 0-10.533-4.553C6.487 13.268 0 19.755 0 27.728c0 7.974 6.487 14.46 14.46 14.46a14.39 14.39 0 0 0 10.544-4.565 14.523 14.523 0 0 0 10.537 4.56c1.236 0 2.491-.16 3.74-.494 7.701-2.064 12.288-10.009 10.225-17.71z"/></g></g></g><g><g><g><path fill="#0f9e20" d="M32.676 25.806a2.121 2.121 0 0 0-2.595-1.499 2.122 2.122 0 0 0-1.499 2.596.978.978 0 0 0 1.888-.506.165.165 0 0 1 .319-.085.977.977 0 1 0 1.887-.506z"/></g></g></g><g><g><g><path fill="#0f9e20" d="M41.52 23.436a2.106 2.106 0 0 0-.987-1.287 2.105 2.105 0 0 0-1.608-.211 2.105 2.105 0 0 0-1.287.987 2.105 2.105 0 0 0-.211 1.608.977.977 0 1 0 1.887-.506.163.163 0 0 1 .017-.125.162.162 0 0 1 .1-.077.163.163 0 0 1 .125.017.162.162 0 0 1 .077.1.977.977 0 1 0 1.887-.506z"/></g></g></g><g><g><g><path fill="#0f9e20" d="M40.664 29.567a.977.977 0 0 0-1.887.505 2.332 2.332 0 0 1-1.647 2.854 2.314 2.314 0 0 1-1.768-.233 2.314 2.314 0 0 1-1.085-1.415.977.977 0 1 0-1.888.506 4.255 4.255 0 0 0 1.996 2.601 4.259 4.259 0 0 0 3.25.428 4.289 4.289 0 0 0 3.03-5.246z"/></g></g></g></g></g></svg>